# xmcd
#
# Track frame offsets: 
#        150
#        9469
#        20615
#        30190
#        38648
#        49606
#        65106
#        74861
#        84548
#        96284
#        107681
#        116896
#        126773
#        138098
#        149887
#        161100
#        170232
#        185503
#        194847
#        205500
#
# Disc length: 2889 seconds
#
# Revision: 1
# Processed by: cddbd v1.5.1PL2 Copyright (c) Steve Scherf et al.
# Submitted via: ExactAudioCopy v0.90b4
#
DISCID=2f0b4714
DTITLE=Marty Robbins - Ruby Ann (Rockin' Rollin Robbins, Vol. 3)
DYEAR=1991
DGENRE=Country
TTITLE0=Ruby Ann (chart version)
TTITLE1=Sometimes I'm Tempted
TTITLE2=No Signs Of Loneliness Here
TTITLE3=Teenager's Dad
TTITLE4=Hello Baby (Goodbye Baby) (2)
TTITLE5=Baby's Gone
TTITLE6=Ruby Ann
TTITLE7=A Whole Lot Easier
TTITLE8=Hello Baby (Goodbye Baby) (3)
TTITLE9=While You're Dancing
TTITLE10=Cap And Gown (fast version)
TTITLE11=Cap And Gown (slow version)
TTITLE12=Last Night About This Time
TTITLE13=She Was Young And She Was Pretty
TTITLE14=Love Can't Wait
TTITLE15=Cap And Gown (New York recording)
TTITLE16=Sweet Cora
TTITLE17=Ain't Life A Cryin' Shame
TTITLE18=Silence And Tears
TTITLE19=You've Been So Busy Baby
EXTD=
EXTT0=
EXTT1=
EXTT2=
EXTT3=
EXTT4=
EXTT5=
EXTT6=
EXTT7=
EXTT8=
EXTT9=
EXTT10=
EXTT11=
EXTT12=
EXTT13=
EXTT14=
EXTT15=
EXTT16=
EXTT17=
EXTT18=
EXTT19=
PLAYORDER=
